<?xml version="1.0" encoding="utf-8"?>
<!-- Generator: Adobe Illustrator 16.0.3, SVG Export Plug-In . SVG Version: 6.00 Build 0)  -->
<!DOCTYPE svg PUBLIC "-//W3C//DTD SVG 1.1//EN" "http://www.w3.org/Graphics/SVG/1.1/DTD/svg11.dtd">
<svg version="1.1" id="Layer_1" xmlns="http://www.w3.org/2000/svg" xmlns:xlink="http://www.w3.org/1999/xlink" x="0px" y="0px"
	 width="960px" height="460px" viewBox="0 0 960 460" style="enable-background:new 0 0 960 460;" xml:space="preserve">
<style type="text/css">
<![CDATA[
	.st0{fill:#7A7A7B;}
	.st1{fill:#7A7B7B;}
	.st2{fill:#7B7977;}
	.st3{fill:#ACACAD;}
	.st4{fill:#7E7F7E;}
	.st5{fill:#ADACAD;}
	.st6{fill:#4F504D;}
	.st7{fill:#808280;}
	.st8{fill:#B1B1B2;}
	.st9{fill:#838182;}
	.st10{fill:#B2B3B1;}
	.st11{fill:#858787;}
	.st12{fill:#878888;}
	.st13{fill:#B6BABA;}
	.st14{fill:#B9B9BA;}
	.st15{fill:#8A8B8A;}
	.st16{fill:#BABABB;}
	.st17{fill:#8C8B87;}
	.st18{fill:#8C8E8D;}
	.st19{fill:#595959;}
	.st20{fill:#595B58;}
	.st21{fill:#8E8E8E;}
	.st22{fill:#8F908F;}
	.st23{fill:#5A5B58;}
	.st24{fill:#5A5C5C;}
	.st25{fill:#C0BFBF;}
	.st26{fill:#C1C1C1;}
	.st27{fill:#C2C2C0;}
	.st28{fill:#989995;}
	.st29{fill:#C8C8C6;}
	.st30{fill:#C9CBCB;}
	.st31{fill:#606162;}
	.st32{fill:#686869;}
	.st33{fill:#9C9D9B;}
	.st34{fill:#9D9D9D;}
	.st35{fill:#9D9E9E;}
	.st36{fill:#CCCCCC;}
	.st37{fill:#6C6B68;}
	.st38{fill:#6D6F6E;}
	.st39{fill:#6F7070;}
	.st40{fill:#D2D2D2;}
	.st41{fill:#D3CECD;}
	.st42{fill:#D3D3D3;}
	.st43{fill:#D4D6D5;}
	.st44{fill:#706E6E;}
	.st45{fill:#A1A2A2;}
	.st46{fill:#737473;}
	.st47{fill:#747273;}
	.st48{fill:#757777;}
	.st49{fill:#A4A4A4;}
	.st50{fill:#767875;}
	.st51{fill:#DADADA;}
	.st52{fill:#A9A9A9;}
]]>
</style>
<g>
	<path class="st48" d="M22.2714844,76.7026367c0,0,17.6166992,20.4448242,16.7680664,20.7993164
		c-0.847168,0.3544922,34.2788086-12.0649414,34.2788086-12.0649414L22.2714844,76.7026367z"/>
	<polygon class="st28" points="89.0136719,31.0166016 22.2714844,76.7026367 73.3183594,85.4370117 	"/>
	<polyline class="st50" points="90.1611328,30.4599609 108.3276367,21.1201172 90.4462891,8.7875977 89.0136719,31.0166016 	"/>
	<polyline class="st15" points="109.3579102,21.8378906 137.09375,44.3535156 146.394043,10.9555664 108.152832,21.3491211 	"/>
	<polygon class="st15" points="140.1801758,32.3920898 173.8662109,31.4726563 161.9321289,47.5541992 	"/>
	<polygon class="st1" points="137.09375,44.3535156 161.9321289,47.5541992 140.1801758,32.3920898 	"/>
	<polygon class="st26" points="173.8662109,31.4726563 188.8911133,53.230957 161.9321289,47.5541992 	"/>
	<polygon class="st41" points="161.9321289,47.5541992 179.3818359,66.1557617 211.2172852,68.1079102 187.734375,52.4916992 	"/>
	<polygon class="st46" points="73.3183594,85.4370117 102.1923828,86.5629883 137.09375,44.3535156 89.0136719,31.0166016 	"/>
	<polygon class="st32" points="102.1923828,86.5629883 81.1982422,141.5219727 153.8144531,85.5776367 137.09375,44.3535156 	"/>
	<polygon class="st24" points="153.8144531,85.5776367 161.9321289,47.5541992 137.09375,44.3535156 	"/>
	<polygon class="st47" points="161.9321289,47.5541992 179.3818359,66.1557617 153.5737305,86.8251953 	"/>
	<polygon class="st31" points="153.5737305,86.8251953 172.7773438,92.3085938 179.3818359,66.1557617 	"/>
	<polygon class="st27" points="179.3818359,66.1557617 207.6918945,91.7485352 172.7773438,92.3085938 	"/>
	<polygon class="st12" points="81.1982422,141.5219727 139.0634766,182.222168 153.8144531,85.5776367 	"/>
	<polygon class="st34" points="153.5737305,86.8251953 179.5800781,151.2939453 138.9345703,181.5429688 	"/>
	<polygon class="st38" points="172.7773438,92.3085938 179.5800781,151.2939453 153.5737305,86.8251953 	"/>
	<polygon class="st51" points="193.8481445,111.6762695 219.168457,147.3359375 179.1279297,151.1113281 	"/>
	<polygon class="st3" points="81.1982422,141.5219727 67.4775391,199.1635742 138.7583008,181.7749023 	"/>
	<polyline class="st4" points="66.703125,150.0092773 81.1982422,141.5219727 67.4775391,199.1635742 66.5058594,150.3505859 	"/>
	<polygon class="st9" points="67.4775391,199.1635742 90.2719727,235.8466797 138.9345703,181.5429688 	"/>
	<polygon class="st7" points="26.3325195,194.3134766 7.8320313,243.0820313 19.828125,254.9443359 28.7167969,233.1074219 
		34.4580078,218.1723633 27.0478516,217.5268555 	"/>
	<polyline class="st0" points="39.8813477,214.2944336 59.171875,224.7050781 80.3950195,219.7138672 67.7167969,198.59375 
		39.8813477,214.2944336 36.5175781,212.8745117 34.4580078,218.1723633 23.7045898,218.6987305 27.0014648,185.4575195 
		67.0131836,198.2036133 67.7167969,198.59375 	"/>
	<polygon class="st6" points="90.1704102,235.0253906 47.1245117,252.1425781 28.0253906,234.0019531 59.171875,224.7050781 
		80.3950195,219.7138672 	"/>
	<polygon class="st17" points="47.1245117,252.1425781 52.9667969,277.0546875 29.3989258,269.9580078 4.4501953,239.0566406 
		28.0253906,234.0019531 	"/>
	<polygon class="st20" points="29.3989258,269.9580078 51.3823242,298.7333984 52.9667969,277.0546875 	"/>
	<polygon class="st39" points="52.9667969,277.0546875 67.9213867,276.2910156 77.0097656,300.5351563 51.3823242,298.7333984 	"/>
	<polyline class="st2" points="90.2719727,235.8466797 123.9404297,248.4755859 139.5214844,181.2036133 90.1704102,235.0253906 	
		"/>
	<polygon class="st22" points="179.5800781,151.2939453 199.7055664,178.9057617 137.765625,182.2124023 	"/>
	<polygon class="st49" points="199.8730469,178.3818359 159.3017578,251.3232422 138.9345703,181.5429688 	"/>
	<polyline class="st29" points="181.4199219,152.5224609 216.2387695,171.3076172 199.7055664,178.9057617 178.925293,151.6494141 
		193.9672852,111.7280273 172.4067383,92.2114258 179.1000977,150.4077148 	"/>
	<polygon class="st13" points="123.4453125,248.4873047 167.7099609,276.40625 139.0634766,182.222168 	"/>
	<polyline class="st43" points="200.0761719,179.003418 226.3847656,204.4575195 159.3891602,250.7919922 200.2563477,177.6547852 	
		"/>
	<polygon class="st43" points="226.3847656,204.4575195 214.6040039,249.7744141 159.2597656,250.5380859 	"/>
	<polygon class="st8" points="159.2597656,250.5380859 167.7099609,276.40625 214.6040039,249.7744141 	"/>
	<polygon class="st30" points="226.3847656,204.4575195 275.7416992,223.7089844 214.684082,250.3056641 	"/>
	<polygon class="st16" points="275.7416992,223.7089844 304.2773438,266.8007813 213.7211914,250.3583984 	"/>
	<polyline class="st33" points="303.2841797,266.7431641 213.2583008,250.0361328 167.7099609,276.40625 208.5698242,291.8183594 
		304.4404297,267.4824219 	"/>
	<polygon class="st33" points="275.7416992,223.7089844 312.4370117,259.7001953 314.0078125,269.0546875 303.8027344,266.7490234 	
		"/>
	<polygon class="st18" points="304.4404297,267.4824219 300.140625,307.2695313 208.5698242,291.8183594 	"/>
	<polygon class="st25" points="300.140625,307.2695313 249.6704102,348.0507813 208.5698242,291.8183594 	"/>
	<polygon class="st5" points="300.140625,307.2695313 279.8149414,345.2919922 249.6704102,348.0507813 	"/>
	<polygon class="st42" points="279.8149414,345.2919922 295.5029297,375.7167969 279.722168,379.4248047 249.6704102,348.0507813 	
		"/>
	<polygon class="st52" points="279.722168,379.4248047 269.7709961,406.7636719 295.5029297,375.7167969 	"/>
	<polygon class="st40" points="295.5029297,375.7167969 281.9047852,430.0332031 270.2158203,405.8085938 	"/>
	<polygon class="st14" points="270.2158203,405.8085938 235.3994141,453.3916016 281.9047852,430.0332031 	"/>
	<polygon class="st21" points="235.3994141,453.3916016 263.8979492,453.3916016 275.0766602,433.1269531 	"/>
	<polyline class="st23" points="208.5698242,291.8183594 208.409668,292.5957031 203.6953125,315.7460938 248.7485352,346.0957031 	
		"/>
	<polygon class="st44" points="247.8447266,345.4042969 242.7807617,383.7529297 222.6547852,374.9873047 203.6953125,315.7460938 	
		"/>
	<polyline class="st19" points="223.2119141,376.1357422 206.1054688,409.5947266 190.503418,397.5556641 222.6547852,374.9873047 	
		"/>
	<polygon class="st48" points="242.7807617,383.7529297 207.1176758,411.0791016 184.8178711,439.1474609 162.887207,437.0205078 
		190.503418,397.5556641 205.7509766,408.7402344 222.6547852,374.9873047 	"/>
	<polygon class="st10" points="311.8520508,259.3671875 342.7084961,276.1357422 325.5688477,282.1679688 314.0078125,269.0546875 	
		"/>
	<polyline class="st45" points="341.8505859,276.5517578 341.4951172,277.3037109 332.4179688,296.6455078 310.7587891,342.7734375 
		348.8857422,363.2587891 342.7084961,276.1357422 	"/>
	<polygon class="st37" points="303.8027344,266.7490234 319.847168,284.5654297 310.9023438,342.0244141 331.3232422,298.7910156 
		341.8505859,276.5517578 326.3925781,281.9384766 314.0078125,269.0546875 	"/>
	<path class="st45" d="M335.5986328,278.6552734"/>
	<polygon class="st11" points="310.7587891,342.7734375 348.8857422,363.2587891 333.5522461,370.0253906 	"/>
	<path class="st50" d="M135.3867188,43.78125"/>
	<polygon class="st28" points="137.09375,44.3535156 108.3276367,21.1201172 89.0136719,31.0166016 	"/>
	<polyline class="st23" points="184.8178711,439.1474609 162.887207,437.0205078 153.0869141,453.3916016 174.4208984,453.3916016 	
		"/>
	<polygon class="st35" points="348.9189453,363.0878906 345.309082,381.796875 333.5869141,369.8535156 	"/>
</g>
<g>
	<path class="st36" d="M421.6235352,86.1401367c-8.5488281-1.8969727-29.1245117-4.1381836-42.1650391-3.9658203
		c-11.7368164,13.621582-23.3286133,32.2431641-32.1674805,48.6235352
		c15.6489258-1.5517578,36.9492188-1.7241211,52.0185547-0.5170898c2.6079102,0.5170898,2.8974609,3.4482422,0,3.4482422
		c-14.0551758,0.1723633-45.2080078,2.4140625-56.3652344,5.862793
		c-5.0712891,10.6899414-12.4614258,26.5532227-12.7509766,43.2783203
		c-0.1450195,12.5869141,9.4179688,15.8632813,17.5322266,15.0009766
		c11.4472656-1.2070313,31.7329102-7.2416992,46.512207-17.2426758c2.0288086-1.3793945,2.3183594,1.2070313,1.0141602,2.0693359
		c-14.0546875,13.2768555-33.7607422,20.5185547-47.6708984,20.5185547c-4.9267578,0-20.2856445-4.1381836-21.5898438-20.8632813
		c-0.8691406-12.5874023,5.7958984-31.8989258,10.2875977-40.3476563c-1.59375,0-3.6225586,0-4.4916992-1.7241211
		c-1.3041992-0.8623047-3.4775391-4.4829102-1.59375-6.5522461c1.4487305-1.7241211,7.6796875-1.7241211,10.5771484-2.7587891
		c9.2734375-16.5527344,19.4165039-33.277832,30.1386719-48.7958984c-16.3730469,0-39.4121094,4.3105469-55.9301758,16.7250977
		c-10.4326172,7.9316406-18.8364258,20.3461914-19.7060547,36.7265625
		c-0.7246094,11.8969727,2.8979492,23.2773438,8.2592773,33.4501953c1.4487305,2.5864258-0.5795898,3.793457-2.0288086,1.3793945
		c-5.2163086-8.793457-9.5629883-22.2426758-9.8530273-34.8295898
		c-0.4345703-17.9321289,6.3754883-30.3466797,20.8652344-41.7265625
		c18.4023438-14.65625,38.5429688-17.0703125,63.6103516-18.7944336c1.8833008-2.4140625,3.3325195-4.1381836,5.0712891-5.6899414
		c2.4628906-2.0693359,1.3037109,6.034668,6.2304688,6.034668c14.2001953,0.1723633,26.2265625,2.0693359,35.6445313,3.9658203
		c1.8837891,0.6899414,3.1879883,2.5864258,3.1879883,4.6552734
		C426.5498047,87.0019531,423.796875,87.0019531,421.6235352,86.1401367z"/>
	<path class="st36" d="M413.9482422,145.109375c9.9975586-8.7939453,18.6914063-14.8286133,26.3710938-17.4150391
		c4.3466797-1.5517578,7.534668-2.2416992,9.7080078-2.2416992c1.7387695,0,3.3330078,0.3452148,4.9267578,1.3793945
		c3.1875-0.6894531,4.78125-0.5170898,4.78125,0.8623047c0,0.5170898-0.2895508,1.2070313-0.8691406,2.0693359
		c-5.2163086,7.0693359-13.1855469,17.5869141-21.4448242,33.277832
		c-18.4018555,35.1743164-44.0488281,78.1079102-56.3652344,116.559082
		c-13.1855469,40.6914063-9.418457,61.3828125,13.1860352,62.4169922
		c12.8955078,0.5175781,29.1240234-3.9658203,47.815918-13.6210938c6.9550781-3.6210938,13.1855469-7.5869141,18.9814453-11.5527344
		c-4.9262695,4.3105469-11.012207,9.3105469-17.9672852,13.1044922
		c-21.0097656,11.3798828-38.6875,15.5175781-51.8730469,15.1728516
		c-45.0634766-1.2070313-19.2714844-72.9355469,29.8486328-159.1474609
		c2.1738281-3.7929688,12.3164063-21.0356445,12.6064453-21.7255859c0.4345703-0.5170898,0.5791016-1.0341797,0.5791016-1.7241211
		c0-0.8618164-0.4345703-1.2070313-1.1591797-1.2070313c-0.8691406,0-1.8833008,0.5175781-2.6079102,1.5522461
		c-9.418457,11.0351563-18.4018555,19.8286133-26.8061523,26.2080078c-3.1875,2.4140625-6.0854492,3.6210938-8.5488281,3.6210938
		c-4.3466797,0-6.3754883-2.5864258-6.3754883-7.9316406c0-1.0341797,0.1450195-2.2412109,0.4345703-3.4482422
		C392.7929688,168.7314453,401.1972656,156.4892578,413.9482422,145.109375z M447.2744141,136.487793
		c0-3.7929688-2.1733398-6.2070313-4.7817383-5.6899414c-8.2592773,1.8969727-17.8222656,8.2763672-28.6894531,19.65625
		c-12.0268555,12.4150391-18.1123047,22.9326172-18.1123047,32.0712891c0,2.7587891,1.1591797,4.3105469,3.1879883,4.3105469
		c4.2016602,0,12.4609375-6.2075195,24.4873047-18.7944336c9.8530273-10.3452148,16.953125-18.9663086,21.8798828-25.8637695
		C446.5498047,140.4536133,447.2744141,138.5571289,447.2744141,136.487793z"/>
	<path class="st36" d="M506.8291016,224.0795898c-5.7958984,1.8964844-14.6347656-3.4487305-16.0839844-8.793457
		c-5.5058594-20.0014648,8.5498047-52.762207,11.4472656-60.5209961c1.1591797-3.2763672,0-6.7246094-3.3330078-2.7587891
		c-8.2587891,9.828125-28.5444336,32.9331055-38.6875,39.3125c-7.8242188,5.0004883-12.605957,1.034668-12.1708984-6.5522461
		c1.0141602-16.3798828,20.7202148-50.0029297,28.1103516-60.1757813c2.0283203-2.7587891,5.6503906-2.7587891,2.6074219,2.7587891
		c-7.2446289,12.7592773-21.1547852,39.3125-24.0527344,51.5546875c-2.3183594,10.0004883,0.2900391,12.4145508,5.5058594,8.6210938
		c15.2148438-10.8623047,38.6875-41.7265625,50.4248047-53.96875c3.6220703-3.9658203,5.5058594,3.2763672,4.2021484,5.8623047
		c-7.6796875,14.3115234-24.0537109,53.1069336-21.0107422,75.1772461c0.5800781,4.4829102,5.5068359,8.2763672,12.171875,5.6899414
		s15.9384766-10.5175781,20.4306641-16.8974609c1.3037109-1.5517578,2.4628906-0.5175781,1.3037109,1.2070313
		C523.2021484,211.6650391,514.3632813,221.4931641,506.8291016,224.0795898z"/>
	<path class="st36" d="M564.3544922,181.3183594c-1.1591797,8.2763672,2.1738281,6.8969727,4.9267578,6.034668
		c1.3037109-0.5170898,13.4755859-10.5175781,14.6347656-11.3798828c3.0429688-2.4140625,3.3320313,0.1723633,1.0136719,2.9311523
		c-2.0283203,2.4140625-14.9238281,13.1044922-17.3876953,14.1386719c-2.4628906,0.8623047-7.2451172-4.1381836-7.2451172-8.6210938
		c0-8.9658203,4.0576172-19.3115234,6.8105469-27.0703125c1.1591797-3.4487305,0-6.8974609-3.4775391-2.7587891
		c-9.4179688,11.0351563-31.8769531,36.8984375-37.9628906,39.3125c-5.2167969,2.0693359-8.8388672-3.1035156-8.5488281-8.793457
		c1.0136719-16.2080078,19.2714844-46.8994141,26.515625-57.0727539c2.0292969-2.7587891,7.5351563-2.2412109,3.9130859,3.1035156
		c-8.6943359,12.9321289-20.8652344,35.5195313-23.7636719,47.7617188
		c-2.3183594,9.3110352,0.7246094,11.8974609,5.5058594,8.6210938
		c15.2148438-10.8623047,34.4863281-39.1401367,46.2226563-51.3823242c3.6220703-3.9658203,5.5058594,4.3105469,4.2021484,6.5522461
		C574.3525391,152.3510742,565.6582031,172.0073242,564.3544922,181.3183594z"/>
	<path class="st36" d="M648.9765625,157.3515625l0.1455078,0.1723633
		c-13.4755859,3.1035156-27.6757813,10.0004883-43.0351563,20.5180664c2.4638672,3.9658203,3.4775391,6.5522461,3.4775391,8.1040039
		c0,3.2763672-3.1875,6.3798828-9.5625,9.6557617c-5.5068359,2.9316406-9.9980469,4.3105469-13.1865234,4.3105469
		c-1.3037109,0-2.1728516-0.1723633-3.0419922-0.5170898c-2.6083984,0.5170898-4.3476563,1.034668-5.2167969,0.6899414
		c-1.4492188-0.1728516-1.59375-0.8623047-0.8691406-2.2416992c1.7382813-2.5864258,8.2587891-8.4487305,19.5605469-17.7597656
		l-4.6367188-7.4140625c-2.0283203-3.2763672-3.1875-6.2075195-3.4775391-9.3110352
		c-0.8691406-7.5869141,5.7958984-16.2080078,19.7060547-26.0361328
		c13.765625-9.6557617,26.2265625-14.4833984,36.9492188-14.3110352c0.5800781,0,1.1591797,0.3447266,1.59375,1.034668
		c0.4345703,1.0341797,0.4345703,1.7241211,0,2.2412109c-1.3037109,2.2416992-5.2158203,5.3452148-6.5205078,4.828125
		c-4.3466797-1.7246094-7.5341797-2.4140625-9.5634766-2.4140625c-1.1582031,0-2.3183594,0.1723633-3.1875,0.3447266
		C622.75,130.7978516,616.375,134.5913086,608.9853516,140.7988281c-9.1289063,7.4140625-13.4755859,13.9663086-12.7509766,19.65625
		c0.2890625,2.5864258,1.4492188,5.5175781,3.1875,8.793457c1.8837891,3.2758789,3.4775391,5.5175781,4.9267578,6.3798828
		C619.8525391,165.2827148,634.6318359,160.2827148,648.9765625,157.3515625z M585.65625,198.2158203
		c1.7392578,0.5175781,4.7822266-0.1723633,8.8388672-1.8964844c3.9121094-1.7246094,6.5205078-3.1035156,7.5351563-4.828125
		c0.4345703-0.6894531,0.5791016-1.3793945,0.5791016-1.8964844c0-1.8964844-1.1591797-3.9658203-3.3320313-6.3798828
		c-1.4492188,1.034668-3.7675781,2.9311523-7.1005859,5.8623047c-3.7666016,3.2763672-6.2304688,5.5175781-7.0996094,7.2421875
		C584.3525391,197.3535156,584.6425781,198.043457,585.65625,198.2158203z"/>
	<path class="st36" d="M784.7460938,64.0698242c10.5771484,7.2416992,11.1572266,27.0708008-4.3466797,29.1396484
		c-35.9345703,5.0004883-75.78125-36.3813477-123.3076172-27.4155273
		c-33.90625,6.2075195-31.2978516,77.2460938-4.0576172,97.9370117
		c13.765625,10.5180664,34.7753906,2.5864258,39.8466797-17.5874023c0.1455078-0.6894531,2.4638672-1.3793945,2.4638672,0
		c-2.4638672,20.8632813-28.4003906,31.3813477-40.4267578,22.5878906
		c-24.3427734-17.7597656-31.7324219-57.9345703-21.5898438-85.8671875
		c13.9101563-38.9682617,62.5957031-23.7949219,94.1835938-8.9663086
		c42.0205078,19.8286133,69.8408203,20.5185547,61.2910156-0.6899414c-1.3037109-3.4482422-3.1875-5.5175781-5.3603516-7.9311523
		C780.9785156,62.862793,783.0078125,62.862793,784.7460938,64.0698242z M742.7255859,93.7265625
		c-2.6083984,4.1381836-14.6347656,21.2084961-20.7197266,38.4506836c-0.7246094,2.4140625-0.7246094,2.5864258,1.59375,2.9311523
		c10.2871094,2.0693359,27.6748047,1.034668,33.1816406,1.034668c3.1875,0,2.8974609,1.2070313-0.1455078,1.8969727
		c-5.5058594,2.0688477-27.2402344,1.7241211-35.2099609,2.0688477c-2.1738281,0.1723633-3.0429688,1.034668-3.7675781,3.793457
		c-4.78125,15.5180664-11.15625,37.0712891-10.4326172,50.6923828c0.1455078,2.9316406,2.0292969,1.2070313,1.5947266,4.6557617
		c-1.3046875,5.3452148-4.6367188,7.2416992-5.0722656,1.8964844c-1.0136719-9.4833984,4.0576172-39.8300781,9.5634766-57.2446289
		c0.7246094-2.7587891-1.4492188-3.6210938-3.3330078-3.6210938c-2.4628906-0.1723633-4.4912109,2.2416992-4.0566406,0.1723633
		c0.5800781-2.7587891,2.7529297-3.9658203,7.5351563-5.3452148c2.3183594-0.6894531,3.0419922-0.8618164,4.4912109-4.3105469
		c3.1875-7.9316406,7.6796875-18.1044922,12.7509766-27.2431641c1.8837891-3.6206055-0.5791016-2.7587891-3.4775391-1.206543
		c-3.0429688,1.7241211-2.4628906-1.5522461-0.8691406-1.8969727c5.3613281-3.1035156,11.1572266-9.4833984,14.0546875-12.5869141
		C742.7255859,85.4501953,745.3339844,90.4506836,742.7255859,93.7265625z"/>
	<path class="st30" d="M751.9990234,195.1123047c-2.1728516,1.2070313-11.0117188-1.8964844-10.8671875-10.3457031
		c0.1455078-11.2075195,15.359375-43.7954102,15.7939453-46.7265625c0.7246094-5.5175781,9.4179688-4.1386719,5.6513672,4.3105469
		c-19.7060547,44.3129883-9.1289063,20.690918-16.0839844,37.7607422
		c-4.78125,11.5522461,0.8691406,11.5522461,4.6367188,10.5180664c7.2451172-2.0693359,12.4609375-6.3798828,17.6777344-12.2421875
		c3.3330078-3.9658203,3.0429688-0.5175781,0.8691406,2.0688477
		C765.0400391,185.9736328,760.4033203,190.6293945,751.9990234,195.1123047z M768.0830078,124.9355469
		c-2.1738281,2.4140625-3.9121094,3.4482422-5.3613281,3.1035156c-2.1728516-0.5170898-3.1875-1.5517578-3.1875-2.9311523
		c0-1.5517578,1.0146484-3.6206055,3.3330078-6.3793945c2.1728516-2.7587891,3.9121094-4.3110352,5.3603516-4.6557617
		c2.0292969-0.5170898,4.4921875,2.0693359,3.9130859,4.1381836
		C771.8505859,120.1074219,770.5458984,122.3491211,768.0830078,124.9355469z"/>
	<path class="st36" d="M758.6640625,196.1469727c-0.1445313-0.5175781-0.1445313-1.034668,0.1455078-1.7246094
		c9.4179688-17.2421875,15.7939453-30.519043,19.1259766-39.8295898c0.5800781-1.7246094,0.8691406-3.1040039,0.8691406-4.3110352
		c0-0.3447266-0.1445313-0.8618164-0.4345703-1.8964844c-0.1445313-0.5170898-0.1445313-0.8623047,0-1.2070313
		c1.1591797-0.5170898,4.7822266-2.9311523,10.8681641-7.2416992c0.1445313-0.3447266,0.4345703-0.3447266,0.5791016-0.3447266
		c0.5791016,0,1.0146484,0.3447266,1.1591797,0.8618164c0.2900391,0.5175781,0.2900391,1.3793945-0.1445313,1.8969727
		c-6.2304688,10.0004883-10.578125,17.5869141-12.7509766,22.5874023c-0.2900391,0.6899414-0.4345703,1.2070313-0.4345703,1.7241211
		c0,0.5175781,0.4345703,0.6899414,1.59375,0.1723633c0.7246094-0.3447266,1.4482422-0.8618164,1.7382813-1.3793945
		c3.6230469-5.1723633,8.5488281-10.8623047,14.6347656-16.7250977c6.2304688-6.034668,11.0117188-9.828125,14.4902344-11.5522461
		c3.0419922-0.1723633,5.2158203,0.1723633,6.6650391,1.034668c0.1445313,0.1723633,0.1445313,0.1723633,0.1445313,0.3447266
		c0,1.5517578-3.0429688,5.3452148-4.2021484,4.4829102c-2.0283203-1.034668-4.4912109-0.5170898-7.8242188,1.5517578
		c-14.2001953,9.3110352-26.9511719,24.8291016-38.2529297,46.8994141c0,0.1723633-0.2900391,0.6899414-1.1591797,1.2070313
		c-1.4492188,0.6899414-3.4775391,1.7241211-5.9404297,3.4487305
		C759.0996094,196.8364258,758.8095703,196.8364258,758.6640625,196.1469727z"/>
	<path class="st36" d="M872.1181641,157.3515625l0.1455078,0.1723633
		c-13.4755859,3.1035156-27.6757813,10.0004883-43.0351563,20.5180664c2.4638672,3.9658203,3.4775391,6.5522461,3.4775391,8.1040039
		c0,3.2763672-3.1875,6.3798828-9.5634766,9.6557617c-5.5058594,2.9316406-9.9970703,4.3105469-13.1855469,4.3105469
		c-1.3037109,0-2.1728516-0.1723633-3.0429688-0.5170898c-2.6074219,0.5170898-4.3466797,1.034668-5.2158203,0.6899414
		c-1.4492188-0.1728516-1.59375-0.8623047-0.8691406-2.2416992c1.7382813-2.5864258,8.2587891-8.4487305,19.5605469-17.7597656
		l-4.6367188-7.4140625c-2.0283203-3.2763672-3.1875-6.2075195-3.4775391-9.3110352
		c-0.8691406-7.5869141,5.7958984-16.2080078,19.7060547-26.0361328
		c13.765625-9.6557617,26.2265625-14.4833984,36.9492188-14.3110352c0.5791016,0,1.1591797,0.3447266,1.59375,1.034668
		c0.4345703,1.0341797,0.4345703,1.7241211,0,2.2412109c-1.3037109,2.2416992-5.2158203,5.3452148-6.5205078,4.828125
		c-4.3466797-1.7246094-7.5341797-2.4140625-9.5625-2.4140625c-1.1601563,0-2.3183594,0.1723633-3.1884766,0.3447266
		c-5.3613281,1.5517578-11.7363281,5.3452148-19.1259766,11.5527344
		c-9.1289063,7.4140625-13.4755859,13.9663086-12.7509766,19.65625c0.2900391,2.5864258,1.4482422,5.5175781,3.1875,8.793457
		c1.8837891,3.2758789,3.4775391,5.5175781,4.9267578,6.3798828
		C842.9941406,165.2827148,857.7734375,160.2827148,872.1181641,157.3515625z M808.7978516,198.2158203
		c1.7392578,0.5175781,4.7822266-0.1723633,8.8388672-1.8964844c3.9121094-1.7246094,6.5205078-3.1035156,7.5351563-4.828125
		c0.4345703-0.6894531,0.5791016-1.3793945,0.5791016-1.8964844c0-1.8964844-1.1591797-3.9658203-3.3320313-6.3798828
		c-1.4492188,1.034668-3.7675781,2.9311523-7.1005859,5.8623047c-3.7675781,3.2763672-6.2304688,5.5175781-7.0996094,7.2421875
		C807.4941406,197.3535156,807.7841797,198.043457,808.7978516,198.2158203z"/>
	<path class="st36" d="M841.5458984,279.4277344c-5.0712891-6.7246094-5.9404297-15.1738281-5.9404297-25.0019531
		c0-16.3798828,5.6503906-39.6572266,16.6630859-69.6591797c9.7080078-26.5532227,19.7060547-47.9335938,29.5585938-64.831543
		c1.3037109-1.7241211,1.7392578-3.2758789,1.7392578-5.1723633c0-2.0693359-0.7246094-3.6210938-2.6083984-4.828125
		c-3.6220703-1.7241211-4.7822266-3.6210938-4.0576172-5.3452148c0.5800781-1.3793945,5.9414063-2.0688477,15.0693359-2.0688477
		c0.7246094,0-0.4345703-0.8623047,0-1.5517578c9.1289063-17.0703125,22.0244141-34.1401367,35.2099609-52.4169922
		c0.7246094-1.034668,3.4785156-2.4140625,8.1152344-4.4833984c4.6367188-1.8964844,5.9404297-2.9311523,8.2587891-2.9311523
		c1.1591797,0,1.59375,0.6899414,1.59375,1.5517578c0,0.6899414-0.4345703,0.8623047-1.4492188,1.2070313
		c-9.1279297,2.2416992-24.0527344,20.3461914-45.0625,54.6586914c-1.4492188,2.4140625-1.1591797,3.9658203,1.0136719,3.9658203
		h21.0107422c11.3017578,0,17.5322266,0.1723633,19.1259766,0.1723633c1.0146484,0,1.4492188,0.1723633,1.7392578,0.5170898
		c0,0.3447266-1.1591797,3.2763672-2.8984375,3.4487305c-11.0117188,0.5170898-25.2119141,1.7241211-43.1796875,2.7587891
		c-1.59375,0.3447266-2.8974609,1.3793945-3.6220703,2.7587891c-10.1425781,17.9321289-19.2714844,34.8295898-27.8203125,55.5205078
		c-13.4755859,32.5883789-21.1552734,59.6586914-22.7490234,80.8666992
		c-0.1445313,2.9316406-0.1445313,5.5175781-0.1445313,8.2763672c0,20.0019531,5.9404297,30.0019531,17.8222656,30.0019531
		c3.3320313,0,6.9550781-0.5175781,11.3017578-2.2412109c12.0263672-4.4833984,23.9082031-14.4833984,36.3691406-30.1748047
		c12.4619141-15.6904297,19.4169922-29.6567383,21.0107422-41.8984375c0-10.6904297-3.3330078-15.5185547-9.7089844-14.3115234
		c-2.8974609,0.5175781-5.0712891,2.7587891-6.0849609,2.7587891c-0.8701172,0-1.3046875-0.6894531-1.1591797-1.5517578
		c0.8691406-1.8964844,2.1728516-2.9311523,7.2441406-5.3452148c0.5800781-0.1723633,1.1601563-0.1723633,1.7392578-0.1723633
		c3.1875,0,5.9404297,2.2416992,8.8388672,7.4140625c2.7529297,5.0004883,4.3466797,9.1386719,4.0566406,11.7250977
		c-1.7382813,15.1733398-11.15625,31.7260742-27.6748047,49.4858398
		c-16.6630859,17.9316406-31.2978516,27.2431641-44.1943359,27.2431641
		C852.9921875,289.7734375,846.6171875,285.9794922,841.5458984,279.4277344z"/>
</g>
</svg>
